<svg xmlns="http://www.w3.org/2000/svg" viewBox="0 0 700 300"
     role="img" aria-label="Trace plot of a Metropolis-Hastings chain
     targeting the posterior of the log hazard ratio. The chain starts
     below the posterior mass, climbs during the first few hundred
     iterations, then mixes around the mode.">
  <style>
    svg { font-family: Charter, "Iowan Old Style", Palatino, Georgia, serif;
          --ink: #262A33; --acc: #990F3D; }
    @media (prefers-color-scheme: dark) {
      svg { --ink: #EDE3D8; --acc: #E8879F; }
    }
    .tick   { font-size: 12px; fill: var(--ink); opacity: .55;
              font-variant-numeric: oldstyle-nums tabular-nums; }
    .label  { font-size: 12.5px; fill: var(--ink); opacity: .55;
              font-variant: small-caps; letter-spacing: .07em; }
    .axis   { stroke: var(--ink); opacity: .22; stroke-width: 1; }
    .chain  { fill: none; stroke: var(--ink); opacity: .62;
              stroke-width: .8; stroke-linejoin: round; }
    .accent { stroke: var(--acc); }
    .accent-fill { fill: var(--acc); }
    .burn   { fill: var(--ink); opacity: .05; }
  </style>

  <rect x="46" y="18" width="65.3"
        height="248" class="burn"/>
  <line x1="111.3" y1="18" x2="111.3"
        y2="266" class="axis" stroke-dasharray="3 3"/>
  <text x="118.3" y="31" class="label">burn-in</text>

  <line x1="46" y1="18" x2="46" y2="266"
        class="axis"/>
  <line x1="46" y1="266" x2="568"
        y2="266" class="axis"/>
  <text x="37" y="270.0" text-anchor="end" class="tick">-1.4</text>
<text x="37" y="208.0" text-anchor="end" class="tick">-0.7</text>
<text x="37" y="146.0" text-anchor="end" class="tick">-0.1</text>
<text x="37" y="84.0" text-anchor="end" class="tick">0.5</text>
<text x="37" y="22.0" text-anchor="end" class="tick">1.2</text>
<text x="46.0" y="288" text-anchor="middle" class="tick">0</text>
<text x="220.0" y="288" text-anchor="middle" class="tick">2000</text>
<text x="394.0" y="288" text-anchor="middle" class="tick">4000</text>
<text x="568.0" y="288" text-anchor="middle" class="tick">6000</text>

  <text x="307" y="299" text-anchor="middle"
        class="label">iteration</text>
  <text x="37" y="13" text-anchor="end"
        class="label">&#946;</text>

  <polyline points="46.0,248.9 46.2,232.6 46.3,222.6 46.5,213.4 46.7,202.9 46.9,202.9 47.0,202.9 47.2,198.7 47.4,170.4 47.6,170.4 47.7,152.6 47.9,148.7 48.1,143.4 48.3,127.9 48.4,125.8 48.6,125.5 48.8,107.3 49.0,103.2 49.1,91.4 49.3,83.8 49.5,76.9 49.7,71.8 49.8,72.4 50.0,70.5 50.2,70.8 50.4,48.1 50.5,65.3 50.7,54.6 50.9,61.4 51.0,58.5 51.2,55.1 51.4,57.8 51.6,62.3 51.7,58.3 51.9,58.3 52.1,59.0 52.3,59.0 52.4,61.4 52.6,49.6 52.8,49.6 53.0,49.6 53.1,45.9 53.3,50.8 53.5,54.0 53.7,54.0 53.8,54.3 54.0,59.4 54.2,58.8 54.4,58.8 54.5,59.4 54.7,59.8 54.9,59.8 55.0,70.0 55.2,52.9 55.4,55.3 55.6,56.3 55.7,49.3 55.9,53.0 56.1,56.7 56.3,54.6 56.4,51.3 56.6,51.8 56.8,49.6 57.0,63.0 57.1,52.5 57.3,46.6 57.5,46.6 57.7,46.0 57.8,70.5 58.0,57.7 58.2,57.7 58.4,61.8 58.5,51.0 58.7,64.6 58.9,55.4 59.1,56.0 59.2,56.0 59.4,56.0 59.6,56.0 59.7,56.7 59.9,66.9 60.1,72.2 60.3,53.9 60.4,49.2 60.6,49.3 60.8,49.3 61.0,49.0 61.1,61.1 61.3,39.6 61.5,39.6 61.7,60.6 61.8,63.7 62.0,53.9 62.2,43.6 62.4,60.5 62.5,53.9 62.7,53.9 62.9,53.9 63.1,59.7 63.2,56.0 63.4,56.0 63.6,56.4 63.8,63.2 63.9,61.0 64.1,61.0 64.3,50.6 64.4,57.9 64.6,57.9 64.8,56.8 65.0,51.8 65.1,51.2 65.3,47.6 65.5,56.4 65.7,56.4 65.8,53.2 66.0,56.3 66.2,49.8 66.4,60.3 66.5,61.5 66.7,57.5 66.9,49.7 67.1,67.5 67.2,42.1 67.4,53.4 67.6,55.1 67.8,55.1 67.9,54.6 68.1,47.5 68.3,45.1 68.4,58.7 68.6,58.7 68.8,50.1 69.0,50.1 69.1,70.5 69.3,56.8 69.5,63.7 69.7,59.9 69.8,50.4 70.0,45.9 70.2,45.6 70.4,62.7 70.5,55.3 70.7,61.7 70.9,51.2 71.1,44.4 71.2,43.2 71.4,39.8 71.6,39.8 71.8,55.6 71.9,55.2 72.1,39.6 72.3,43.0 72.5,63.1 72.6,63.1 72.8,59.5 73.0,68.2 73.1,46.0 73.3,57.7 73.5,59.8 73.7,40.8 73.8,48.1 74.0,44.6 74.2,49.6 74.4,48.7 74.5,51.4 74.7,58.3 74.9,48.7 75.1,48.7 75.2,52.0 75.4,48.5 75.6,43.6 75.8,49.0 75.9,51.4 76.1,65.7 76.3,59.7 76.5,50.3 76.6,49.9 76.8,49.9 77.0,54.7 77.2,57.4 77.3,50.5 77.5,50.5 77.7,48.1 77.8,51.1 78.0,49.4 78.2,62.8 78.4,62.8 78.5,62.0 78.7,63.7 78.9,61.4 79.1,55.0 79.2,55.0 79.4,55.0 79.6,66.1 79.8,67.2 79.9,57.9 80.1,62.5 80.3,46.1 80.5,57.3 80.6,61.0 80.8,61.0 81.0,56.9 81.2,61.0 81.3,65.8 81.5,56.9 81.7,65.9 81.8,65.9 82.0,65.9 82.2,55.1 82.4,59.3 82.5,51.5 82.7,53.8 82.9,53.3 83.1,47.1 83.2,45.8 83.4,60.8 83.6,51.9 83.8,57.5 83.9,52.3 84.1,43.9 84.3,56.9 84.5,56.9 84.6,50.3 84.8,58.1 85.0,60.6 85.2,60.6 85.3,50.3 85.5,50.9 85.7,50.9 85.9,60.2 86.0,56.8 86.2,56.8 86.4,55.2 86.5,55.6 86.7,55.6 86.9,56.8 87.1,51.5 87.2,51.4 87.4,51.4 87.6,61.4 87.8,57.2 87.9,46.6 88.1,54.6 88.3,54.6 88.5,54.6 88.6,50.3 88.8,47.0 89.0,64.3 89.2,54.3 89.3,55.3 89.5,56.5 89.7,61.8 89.9,57.7 90.0,59.0 90.2,59.7 90.4,54.5 90.6,56.4 90.7,56.4 90.9,56.4 91.1,52.2 91.2,47.4 91.4,53.6 91.6,53.7 91.8,55.1 91.9,55.9 92.1,64.0 92.3,49.1 92.5,60.1 92.6,63.9 92.8,51.1 93.0,56.2 93.2,56.2 93.3,65.7 93.5,63.7 93.7,68.4 93.9,60.3 94.0,53.0 94.2,53.4 94.4,55.7 94.6,52.4 94.7,52.4 94.9,52.4 95.1,52.4 95.3,56.1 95.4,56.1 95.6,42.4 95.8,42.8 95.9,51.8 96.1,52.9 96.3,52.9 96.5,52.9 96.6,52.9 96.8,52.9 97.0,52.3 97.2,56.8 97.3,62.0 97.5,56.6 97.7,60.2 97.9,60.2 98.0,60.2 98.2,60.5 98.4,66.8 98.6,60.0 98.7,62.0 98.9,71.6 99.1,64.8 99.3,61.9 99.4,48.7 99.6,62.3 99.8,62.4 99.9,58.8 100.1,56.9 100.3,56.9 100.5,56.9 100.6,57.5 100.8,57.5 101.0,57.5 101.2,50.2 101.3,55.3 101.5,55.3 101.7,54.5 101.9,60.8 102.0,58.3 102.2,60.2 102.4,60.0 102.6,57.6 102.7,57.6 102.9,60.6 103.1,53.2 103.3,53.2 103.4,48.8 103.6,48.8 103.8,48.8 104.0,53.3 104.1,55.5 104.3,56.3 104.5,49.4 104.6,46.5 104.8,54.6 105.0,59.8 105.2,56.6 105.3,45.5 105.5,45.5 105.7,45.5 105.9,57.8 106.0,56.6 106.2,60.7 106.4,60.7 106.6,61.5 106.7,64.0 106.9,64.0 107.1,66.8 107.3,68.1 107.4,60.6 107.6,49.5 107.8,62.7 108.0,65.4 108.1,51.6 108.3,74.4 108.5,58.5 108.7,59.0 108.8,59.0 109.0,49.8 109.2,54.2 109.3,47.5 109.5,55.3 109.7,55.3 109.9,55.3 110.0,55.3 110.2,61.9 110.4,40.5 110.6,40.5 110.7,49.8 110.9,53.5 111.1,41.5 111.3,40.6 111.4,59.9 111.6,46.6 111.8,55.6 112.0,59.4 112.1,54.4 112.3,54.4 112.5,50.9 112.7,54.5 112.8,44.5 113.0,40.3 113.2,50.1 113.3,61.6 113.5,53.8 113.7,54.7 113.9,53.0 114.0,57.5 114.2,54.2 114.4,60.4 114.6,58.4 114.7,60.3 114.9,69.7 115.1,52.7 115.3,57.9 115.4,40.8 115.6,48.2 115.8,47.5 116.0,66.2 116.1,57.5 116.3,56.5 116.5,56.5 116.7,51.5 116.8,60.0 117.0,52.7 117.2,58.8 117.4,63.5 117.5,51.9 117.7,58.2 117.9,55.5 118.0,55.5 118.2,49.8 118.4,42.7 118.6,48.0 118.7,58.7 118.9,58.7 119.1,57.0 119.3,44.1 119.4,46.0 119.6,46.0 119.8,53.7 120.0,52.0 120.1,45.2 120.3,52.4 120.5,52.4 120.7,52.0 120.8,60.5 121.0,65.8 121.2,47.6 121.4,59.7 121.5,57.1 121.7,62.3 121.9,56.3 122.1,58.5 122.2,58.5 122.4,52.8 122.6,52.8 122.7,56.4 122.9,59.6 123.1,66.7 123.3,56.3 123.4,49.5 123.6,55.3 123.8,64.9 124.0,66.2 124.1,56.6 124.3,61.0 124.5,59.3 124.7,54.2 124.8,50.2 125.0,53.1 125.2,53.1 125.4,60.5 125.5,55.8 125.7,58.7 125.9,62.4 126.1,61.8 126.2,61.1 126.4,59.9 126.6,59.9 126.7,59.9 126.9,59.9 127.1,58.8 127.3,55.1 127.4,58.4 127.6,57.8 127.8,57.8 128.0,62.2 128.1,69.4 128.3,50.5 128.5,59.5 128.7,64.5 128.8,73.5 129.0,71.1 129.2,71.1 129.4,66.9 129.5,66.9 129.7,57.6 129.9,58.1 130.1,58.1 130.2,60.8 130.4,53.9 130.6,55.0 130.8,52.0 130.9,52.1 131.1,57.2 131.3,59.3 131.4,59.3 131.6,51.9 131.8,41.4 132.0,41.4 132.1,41.4 132.3,50.1 132.5,59.2 132.7,52.2 132.8,60.0 133.0,51.5 133.2,58.3 133.4,60.3 133.5,58.2 133.7,64.2 133.9,45.2 134.1,53.7 134.2,60.0 134.4,61.4 134.6,61.4 134.8,60.5 134.9,60.5 135.1,64.4 135.3,63.8 135.5,51.0 135.6,62.7 135.8,51.7 136.0,59.5 136.1,52.7 136.3,46.6 136.5,59.4 136.7,58.1 136.8,58.1 137.0,68.8 137.2,59.4 137.4,51.3 137.5,58.9 137.7,59.0 137.9,61.6 138.1,61.6 138.2,65.3 138.4,65.7 138.6,57.8 138.8,53.1 138.9,53.1 139.1,51.2 139.3,64.4 139.5,42.3 139.6,54.7 139.8,54.7 140.0,54.7 140.1,65.5 140.3,44.9 140.5,44.9 140.7,44.9 140.8,50.2 141.0,60.0 141.2,50.5 141.4,50.5 141.5,50.5 141.7,58.3 141.9,53.4 142.1,53.5 142.2,50.9 142.4,49.5 142.6,57.2 142.8,45.8 142.9,46.0 143.1,46.0 143.3,64.3 143.5,63.1 143.6,63.1 143.8,53.3 144.0,53.3 144.2,53.3 144.3,53.3 144.5,48.7 144.7,61.5 144.8,61.5 145.0,50.3 145.2,58.0 145.4,56.1 145.5,60.4 145.7,60.4 145.9,49.9 146.1,57.1 146.2,57.1 146.4,57.1 146.6,45.1 146.8,62.8 146.9,65.1 147.1,47.0 147.3,47.0 147.5,47.4 147.6,53.1 147.8,65.3 148.0,66.0 148.2,68.1 148.3,53.6 148.5,62.5 148.7,59.4 148.9,59.4 149.0,61.2 149.2,57.4 149.4,51.6 149.5,50.5 149.7,46.6 149.9,64.1 150.1,56.3 150.2,56.3 150.4,56.3 150.6,56.3 150.8,50.0 150.9,53.3 151.1,61.8 151.3,55.7 151.5,55.7 151.6,50.7 151.8,56.6 152.0,56.5 152.2,56.5 152.3,56.5 152.5,56.5 152.7,47.4 152.9,47.4 153.0,47.4 153.2,47.4 153.4,62.5 153.5,63.1 153.7,60.5 153.9,62.5 154.1,45.9 154.2,43.0 154.4,53.1 154.6,51.3 154.8,51.3 154.9,48.7 155.1,52.1 155.3,53.4 155.5,54.6 155.6,54.6 155.8,54.6 156.0,54.6 156.2,58.7 156.3,62.0 156.5,64.0 156.7,46.2 156.9,53.1 157.0,61.6 157.2,59.0 157.4,59.0 157.6,69.7 157.7,70.2 157.9,70.2 158.1,55.8 158.2,51.5 158.4,54.7 158.6,54.7 158.8,55.6 158.9,55.6 159.1,62.5 159.3,65.6 159.5,57.0 159.6,62.1 159.8,59.0 160.0,59.0 160.2,52.4 160.3,52.4 160.5,59.3 160.7,54.7 160.9,56.3 161.0,44.0 161.2,62.1 161.4,54.0 161.6,65.1 161.7,65.1 161.9,57.8 162.1,56.6 162.3,51.1 162.4,50.8 162.6,59.8 162.8,52.7 162.9,54.6 163.1,54.6 163.3,42.8 163.5,51.5 163.6,51.5 163.8,74.2 164.0,50.6 164.2,50.6 164.3,50.6 164.5,50.6 164.7,56.6 164.9,68.5 165.0,68.5 165.2,68.5 165.4,68.5 165.6,59.8 165.7,50.9 165.9,39.6 166.1,52.6 166.3,48.8 166.4,50.1 166.6,58.7 166.8,58.7 167.0,57.5 167.1,50.4 167.3,50.4 167.5,60.5 167.6,56.2 167.8,47.2 168.0,47.2 168.2,48.4 168.3,48.4 168.5,51.9 168.7,64.2 168.9,54.2 169.0,58.1 169.2,58.1 169.4,48.1 169.6,54.3 169.7,62.5 169.9,50.3 170.1,51.7 170.3,51.7 170.4,60.8 170.6,60.8 170.8,57.5 171.0,57.5 171.1,58.5 171.3,58.5 171.5,51.4 171.6,48.1 171.8,55.3 172.0,60.0 172.2,59.7 172.3,59.7 172.5,59.2 172.7,59.2 172.9,57.4 173.0,57.4 173.2,50.2 173.4,51.6 173.6,48.3 173.7,58.8 173.9,56.2 174.1,45.4 174.3,53.8 174.4,57.8 174.6,59.8 174.8,59.8 175.0,53.1 175.1,53.1 175.3,45.0 175.5,48.2 175.7,45.6 175.8,60.4 176.0,60.4 176.2,54.4 176.3,63.0 176.5,63.0 176.7,63.0 176.9,57.3 177.0,49.7 177.2,54.8 177.4,73.7 177.6,71.2 177.7,54.0 177.9,54.0 178.1,54.0 178.3,52.1 178.4,51.0 178.6,56.9 178.8,49.6 179.0,47.3 179.1,47.3 179.3,62.0 179.5,51.8 179.7,47.7 179.8,53.7 180.0,60.9 180.2,67.3 180.4,58.1 180.5,58.1 180.7,50.0 180.9,52.0 181.0,65.1 181.2,55.0 181.4,58.0 181.6,54.0 181.7,58.6 181.9,61.2 182.1,61.2 182.3,63.9 182.4,50.3 182.6,50.7 182.8,50.9 183.0,57.5 183.1,52.3 183.3,52.3 183.5,65.8 183.7,70.8 183.8,63.6 184.0,63.9 184.2,63.9 184.4,63.9 184.5,47.4 184.7,51.2 184.9,56.7 185.0,55.2 185.2,51.1 185.4,55.2 185.6,52.3 185.7,40.6 185.9,46.0 186.1,50.2 186.3,50.2 186.4,50.2 186.6,47.7 186.8,60.1 187.0,53.0 187.1,61.6 187.3,59.8 187.5,59.8 187.7,52.4 187.8,68.1 188.0,54.8 188.2,54.8 188.4,58.2 188.5,48.3 188.7,50.3 188.9,45.4 189.1,45.4 189.2,67.2 189.4,61.2 189.6,61.8 189.7,61.8 189.9,61.9 190.1,51.1 190.3,49.1 190.4,50.0 190.6,51.9 190.8,58.5 191.0,62.5 191.1,50.8 191.3,50.8 191.5,50.8 191.7,58.3 191.8,62.1 192.0,55.1 192.2,60.3 192.4,62.6 192.5,62.6 192.7,57.9 192.9,53.5 193.1,49.3 193.2,60.8 193.4,46.3 193.6,54.5 193.8,70.1 193.9,58.3 194.1,58.3 194.3,60.7 194.4,40.8 194.6,40.8 194.8,36.4 195.0,62.0 195.1,46.7 195.3,46.7 195.5,64.4 195.7,66.6 195.8,70.0 196.0,62.1 196.2,56.4 196.4,55.2 196.5,61.2 196.7,63.7 196.9,63.6 197.1,63.6 197.2,60.9 197.4,60.9 197.6,49.3 197.8,58.0 197.9,55.7 198.1,59.3 198.3,59.8 198.4,58.0 198.6,54.9 198.8,54.9 199.0,58.4 199.1,55.7 199.3,55.7 199.5,50.8 199.7,62.8 199.8,53.2 200.0,53.2 200.2,54.6 200.4,60.9 200.5,65.3 200.7,57.2 200.9,52.5 201.1,58.9 201.2,58.1 201.4,57.2 201.6,55.3 201.8,53.0 201.9,55.4 202.1,57.1 202.3,51.2 202.5,57.8 202.6,68.6 202.8,68.6 203.0,59.1 203.1,66.6 203.3,62.7 203.5,62.7 203.7,65.9 203.8,59.8 204.0,56.1 204.2,58.1 204.4,59.3 204.5,54.5 204.7,56.0 204.9,56.0 205.1,63.0 205.2,56.2 205.4,50.1 205.6,62.6 205.8,48.1 205.9,56.3 206.1,48.1 206.3,46.6 206.5,52.8 206.6,51.4 206.8,49.5 207.0,49.5 207.2,49.5 207.3,47.3 207.5,56.7 207.7,71.9 207.8,67.8 208.0,60.7 208.2,51.8 208.4,59.5 208.5,60.6 208.7,62.4 208.9,70.1 209.1,57.4 209.2,56.3 209.4,65.2 209.6,71.9 209.8,56.4 209.9,58.1 210.1,62.2 210.3,62.2 210.5,53.9 210.6,53.9 210.8,53.9 211.0,63.1 211.2,60.8 211.3,65.9 211.5,57.0 211.7,54.6 211.8,49.0 212.0,50.3 212.2,54.4 212.4,52.4 212.5,55.5 212.7,60.3 212.9,57.4 213.1,62.2 213.2,57.2 213.4,57.2 213.6,63.4 213.8,61.8 213.9,61.3 214.1,57.0 214.3,56.7 214.5,59.1 214.6,55.4 214.8,63.3 215.0,58.8 215.2,43.9 215.3,57.0 215.5,59.0 215.7,57.5 215.9,63.5 216.0,63.5 216.2,57.2 216.4,57.3 216.5,59.2 216.7,58.3 216.9,47.3 217.1,47.3 217.2,59.5 217.4,52.6 217.6,47.8 217.8,55.2 217.9,56.6 218.1,57.3 218.3,56.8 218.5,55.3 218.6,64.7 218.8,59.5 219.0,59.5 219.2,66.9 219.3,60.9 219.5,55.0 219.7,57.8 219.9,58.5 220.0,50.6 220.2,56.2 220.4,56.0 220.6,56.0 220.7,57.1 220.9,62.0 221.1,63.2 221.2,65.3 221.4,65.3 221.6,72.2 221.8,62.7 221.9,52.3 222.1,52.3 222.3,49.4 222.5,49.4 222.6,62.4 222.8,62.4 223.0,66.7 223.2,57.5 223.3,54.2 223.5,54.2 223.7,45.2 223.9,47.9 224.0,51.9 224.2,51.9 224.4,51.9 224.6,47.7 224.7,67.3 224.9,44.8 225.1,48.5 225.2,66.3 225.4,69.8 225.6,66.3 225.8,66.3 225.9,54.6 226.1,56.6 226.3,53.8 226.5,51.5 226.6,53.4 226.8,52.0 227.0,59.1 227.2,57.9 227.3,46.3 227.5,63.2 227.7,69.1 227.9,69.1 228.0,61.2 228.2,53.9 228.4,53.9 228.6,54.4 228.7,53.3 228.9,53.3 229.1,63.6 229.3,53.5 229.4,64.2 229.6,56.8 229.8,54.4 229.9,58.2 230.1,48.8 230.3,57.9 230.5,67.1 230.6,66.9 230.8,66.9 231.0,58.1 231.2,50.1 231.3,60.7 231.5,51.6 231.7,57.0 231.9,61.5 232.0,55.0 232.2,55.2 232.4,63.8 232.6,67.7 232.7,61.7 232.9,68.5 233.1,68.5 233.3,67.4 233.4,58.6 233.6,49.4 233.8,65.4 234.0,65.4 234.1,65.4 234.3,61.0 234.5,64.0 234.6,48.6 234.8,64.7 235.0,51.6 235.2,63.5 235.3,63.5 235.5,64.3 235.7,63.5 235.9,63.9 236.0,56.9 236.2,52.4 236.4,52.4 236.6,47.5 236.7,47.7 236.9,53.6 237.1,52.7 237.3,54.1 237.4,58.0 237.6,58.0 237.8,65.2 238.0,68.3 238.1,70.4 238.3,70.4 238.5,67.4 238.7,50.0 238.8,50.0 239.0,59.6 239.2,58.5 239.3,57.7 239.5,57.7 239.7,62.6 239.9,62.6 240.0,56.9 240.2,56.8 240.4,56.9 240.6,66.8 240.7,66.8 240.9,55.7 241.1,51.8 241.3,64.4 241.4,64.4 241.6,54.0 241.8,58.0 242.0,50.2 242.1,60.8 242.3,65.4 242.5,48.6 242.7,48.6 242.8,52.2 243.0,55.3 243.2,44.3 243.3,42.9 243.5,44.1 243.7,44.2 243.9,50.0 244.0,55.6 244.2,55.8 244.4,59.6 244.6,59.6 244.7,50.1 244.9,55.1 245.1,47.5 245.3,58.5 245.4,64.3 245.6,58.8 245.8,58.8 246.0,58.8 246.1,51.2 246.3,58.4 246.5,62.0 246.7,52.8 246.8,48.9 247.0,61.4 247.2,51.5 247.4,63.7 247.5,63.7 247.7,63.0 247.9,57.9 248.0,59.6 248.2,59.6 248.4,58.5 248.6,61.8 248.7,50.7 248.9,54.5 249.1,47.3 249.3,47.3 249.4,53.3 249.6,53.3 249.8,55.0 250.0,55.0 250.1,55.0 250.3,48.4 250.5,48.5 250.7,48.5 250.8,57.0 251.0,57.0 251.2,69.3 251.4,50.5 251.5,66.4 251.7,56.7 251.9,58.9 252.1,58.9 252.2,68.5 252.4,72.1 252.6,69.7 252.7,69.7 252.9,71.2 253.1,61.5 253.3,58.6 253.4,51.7 253.6,63.9 253.8,54.7 254.0,57.6 254.1,53.9 254.3,55.2 254.5,56.6 254.7,54.9 254.8,63.2 255.0,50.3 255.2,49.0 255.4,67.2 255.5,67.2 255.7,67.2 255.9,57.7 256.1,60.0 256.2,61.0 256.4,57.8 256.6,60.7 256.7,63.1 256.9,63.1 257.1,61.1 257.3,52.5 257.4,52.5 257.6,56.9 257.8,53.7 258.0,54.5 258.1,53.6 258.3,53.6 258.5,61.5 258.7,61.7 258.8,58.3 259.0,59.3 259.2,56.6 259.4,56.8 259.5,54.2 259.7,54.7 259.9,54.8 260.1,48.1 260.2,51.9 260.4,51.9 260.6,51.9 260.8,59.1 260.9,62.9 261.1,61.2 261.3,61.2 261.4,53.8 261.6,69.1 261.8,71.2 262.0,67.7 262.1,58.8 262.3,50.7 262.5,60.6 262.7,52.4 262.8,64.2 263.0,61.2 263.2,61.4 263.4,69.8 263.5,69.8 263.7,67.9 263.9,48.8 264.1,48.8 264.2,54.7 264.4,41.0 264.6,61.0 264.8,71.8 264.9,66.2 265.1,69.1 265.3,69.1 265.5,53.9 265.6,53.9 265.8,57.7 266.0,57.7 266.1,56.8 266.3,54.4 266.5,58.7 266.7,59.6 266.8,57.1 267.0,57.7 267.2,68.7 267.4,68.7 267.5,68.2 267.7,69.7 267.9,69.7 268.1,59.5 268.2,53.2 268.4,54.2 268.6,57.8 268.8,50.9 268.9,59.6 269.1,61.0 269.3,61.0 269.5,54.2 269.6,59.0 269.8,49.3 270.0,51.6 270.1,51.6 270.3,57.4 270.5,45.5 270.7,55.7 270.8,64.6 271.0,43.4 271.2,56.8 271.4,52.3 271.5,52.3 271.7,62.7 271.9,61.5 272.1,57.1 272.2,58.1 272.4,58.1 272.6,58.1 272.8,58.1 272.9,58.1 273.1,59.1 273.3,59.1 273.5,58.0 273.6,58.0 273.8,53.0 274.0,53.0 274.2,50.6 274.3,59.4 274.5,57.1 274.7,57.1 274.8,57.1 275.0,57.1 275.2,57.5 275.4,57.5 275.5,55.6 275.7,52.1 275.9,57.3 276.1,55.8 276.2,56.5 276.4,57.3 276.6,61.8 276.8,62.3 276.9,61.0 277.1,51.8 277.3,47.8 277.5,50.0 277.6,52.1 277.8,58.3 278.0,58.6 278.2,47.0 278.3,46.1 278.5,56.5 278.7,56.5 278.9,53.0 279.0,63.7 279.2,54.1 279.4,55.1 279.5,51.5 279.7,57.8 279.9,45.9 280.1,60.3 280.2,60.3 280.4,47.6 280.6,51.9 280.8,51.9 280.9,57.9 281.1,57.9 281.3,57.9 281.5,56.4 281.6,61.5 281.8,58.0 282.0,55.9 282.2,55.9 282.3,68.4 282.5,69.9 282.7,69.9 282.9,54.1 283.0,59.2 283.2,59.2 283.4,55.7 283.5,49.5 283.7,49.5 283.9,59.5 284.1,52.5 284.2,52.5 284.4,49.0 284.6,58.3 284.8,55.3 284.9,56.0 285.1,54.9 285.3,59.1 285.5,59.1 285.6,55.1 285.8,55.1 286.0,58.4 286.2,54.1 286.3,53.6 286.5,53.2 286.7,53.2 286.9,62.4 287.0,62.4 287.2,56.7 287.4,56.7 287.6,52.5 287.7,55.0 287.9,55.0 288.1,57.1 288.2,54.4 288.4,54.4 288.6,54.4 288.8,54.4 288.9,60.0 289.1,58.0 289.3,50.7 289.5,64.2 289.6,61.0 289.8,57.6 290.0,53.7 290.2,65.7 290.3,44.2 290.5,41.9 290.7,57.6 290.9,49.8 291.0,67.2 291.2,67.2 291.4,60.7 291.6,49.9 291.7,49.9 291.9,59.4 292.1,62.5 292.3,61.3 292.4,53.6 292.6,53.4 292.8,51.4 292.9,56.2 293.1,51.1 293.3,53.3 293.5,53.3 293.6,58.8 293.8,57.6 294.0,57.6 294.2,52.7 294.3,49.0 294.5,55.0 294.7,51.6 294.9,54.9 295.0,54.5 295.2,53.7 295.4,53.7 295.6,58.3 295.7,58.3 295.9,56.4 296.1,54.1 296.3,53.6 296.4,51.6 296.6,51.6 296.8,51.6 296.9,56.6 297.1,56.8 297.3,49.3 297.5,49.3 297.6,61.3 297.8,50.7 298.0,50.7 298.2,50.7 298.3,51.8 298.5,41.3 298.7,58.4 298.9,50.5 299.0,50.5 299.2,55.6 299.4,55.6 299.6,58.3 299.7,52.5 299.9,52.5 300.1,58.7 300.3,58.7 300.4,55.0 300.6,51.8 300.8,43.6 301.0,44.1 301.1,41.7 301.3,57.5 301.5,57.5 301.6,57.5 301.8,57.5 302.0,47.5 302.2,63.6 302.3,66.8 302.5,52.7 302.7,55.5 302.9,62.4 303.0,67.3 303.2,60.6 303.4,60.6 303.6,49.9 303.7,55.6 303.9,55.6 304.1,65.1 304.3,65.1 304.4,55.1 304.6,57.1 304.8,53.8 305.0,48.7 305.1,48.8 305.3,44.9 305.5,47.7 305.7,47.7 305.8,64.1 306.0,63.0 306.2,63.0 306.3,56.0 306.5,57.7 306.7,66.0 306.9,63.6 307.0,52.3 307.2,58.9 307.4,48.3 307.6,57.2 307.7,57.2 307.9,50.3 308.1,65.9 308.3,49.4 308.4,66.8 308.6,65.8 308.8,56.0 309.0,56.0 309.1,52.2 309.3,51.3 309.5,58.6 309.7,50.8 309.8,63.7 310.0,68.3 310.2,54.1 310.4,55.0 310.5,50.6 310.7,43.9 310.9,59.1 311.0,57.6 311.2,55.6 311.4,55.6 311.6,55.6 311.7,58.2 311.9,54.8 312.1,62.0 312.3,67.8 312.4,48.5 312.6,60.2 312.8,61.0 313.0,50.8 313.1,56.5 313.3,59.0 313.5,56.7 313.7,56.7 313.8,56.5 314.0,68.1 314.2,55.8 314.4,55.8 314.5,61.5 314.7,46.2 314.9,46.2 315.0,43.6 315.2,65.1 315.4,56.4 315.6,66.8 315.7,55.6 315.9,50.8 316.1,51.5 316.3,57.0 316.4,57.1 316.6,64.2 316.8,50.9 317.0,50.9 317.1,58.1 317.3,58.1 317.5,58.1 317.7,52.5 317.8,54.5 318.0,54.5 318.2,70.2 318.4,67.9 318.5,51.5 318.7,51.5 318.9,48.8 319.1,50.5 319.2,50.5 319.4,50.5 319.6,50.5 319.7,39.8 319.9,41.3 320.1,41.3 320.3,46.8 320.4,46.8 320.6,51.5 320.8,48.5 321.0,48.3 321.1,38.2 321.3,42.6 321.5,64.0 321.7,62.7 321.8,62.7 322.0,59.6 322.2,51.7 322.4,43.2 322.5,63.2 322.7,52.3 322.9,52.3 323.1,52.3 323.2,63.8 323.4,53.3 323.6,61.7 323.8,61.7 323.9,61.2 324.1,63.9 324.3,59.5 324.4,60.7 324.6,60.7 324.8,59.7 325.0,59.7 325.1,60.3 325.3,57.9 325.5,57.9 325.7,64.7 325.8,49.2 326.0,55.8 326.2,57.5 326.4,48.1 326.5,61.7 326.7,56.5 326.9,56.9 327.1,56.9 327.2,56.9 327.4,53.6 327.6,44.6 327.8,40.8 327.9,40.8 328.1,42.7 328.3,48.0 328.4,46.3 328.6,47.2 328.8,47.2 329.0,47.2 329.1,50.4 329.3,50.4 329.5,50.4 329.7,47.5 329.8,56.1 330.0,56.1 330.2,55.1 330.4,63.4 330.5,63.4 330.7,62.7 330.9,56.5 331.1,57.1 331.2,50.3 331.4,50.3 331.6,55.4 331.8,69.7 331.9,45.6 332.1,61.2 332.3,61.2 332.5,57.8 332.6,56.0 332.8,56.0 333.0,51.5 333.1,52.1 333.3,52.1 333.5,61.5 333.7,61.5 333.8,56.8 334.0,56.8 334.2,46.8 334.4,44.9 334.5,60.1 334.7,61.2 334.9,58.7 335.1,56.3 335.2,53.7 335.4,63.1 335.6,56.3 335.8,52.9 335.9,59.5 336.1,59.5 336.3,50.8 336.5,50.8 336.6,50.8 336.8,58.9 337.0,50.4 337.2,40.0 337.3,49.4 337.5,52.5 337.7,52.5 337.8,41.2 338.0,41.2 338.2,54.7 338.4,58.3 338.5,62.4 338.7,61.0 338.9,53.3 339.1,57.7 339.2,52.4 339.4,48.9 339.6,53.2 339.8,58.0 339.9,58.0 340.1,52.6 340.3,55.4 340.5,55.4 340.6,47.7 340.8,51.4 341.0,48.2 341.2,53.8 341.3,56.5 341.5,51.4 341.7,61.3 341.8,66.2 342.0,52.9 342.2,51.6 342.4,51.6 342.5,49.2 342.7,40.6 342.9,41.1 343.1,58.2 343.2,68.2 343.4,61.1 343.6,54.4 343.8,48.1 343.9,52.4 344.1,50.8 344.3,65.8 344.5,62.1 344.6,62.1 344.8,57.2 345.0,57.2 345.2,53.4 345.3,62.6 345.5,51.0 345.7,62.6 345.9,47.1 346.0,54.9 346.2,59.4 346.4,61.2 346.5,60.2 346.7,55.3 346.9,69.2 347.1,60.9 347.2,59.9 347.4,61.2 347.6,60.6 347.8,58.7 347.9,72.1 348.1,72.1 348.3,55.4 348.5,61.9 348.6,55.0 348.8,62.2 349.0,62.2 349.2,62.2 349.3,63.0 349.5,51.8 349.7,49.2 349.9,64.4 350.0,63.1 350.2,63.1 350.4,45.6 350.6,55.1 350.7,55.1 350.9,55.1 351.1,51.0 351.2,62.7 351.4,63.5 351.6,47.9 351.8,61.6 351.9,64.7 352.1,41.7 352.3,58.5 352.5,58.6 352.6,53.8 352.8,53.8 353.0,53.8 353.2,53.8 353.3,57.0 353.5,54.2 353.7,68.2 353.9,63.7 354.0,63.7 354.2,62.9 354.4,72.0 354.6,60.2 354.7,60.2 354.9,54.5 355.1,54.1 355.2,56.6 355.4,57.3 355.6,54.7 355.8,53.1 355.9,53.1 356.1,50.2 356.3,50.0 356.5,48.4 356.6,55.9 356.8,57.5 357.0,57.9 357.2,51.0 357.3,64.2 357.5,53.4 357.7,57.4 357.9,57.4 358.0,69.1 358.2,67.7 358.4,58.7 358.6,58.7 358.7,58.7 358.9,58.7 359.1,58.7 359.3,55.6 359.4,55.6 359.6,54.9 359.8,54.9 359.9,65.2 360.1,64.8 360.3,60.2 360.5,60.2 360.6,54.2 360.8,52.0 361.0,54.5 361.2,54.5 361.3,60.8 361.5,53.4 361.7,58.3 361.9,58.3 362.0,47.9 362.2,47.9 362.4,57.5 362.6,44.9 362.7,45.8 362.9,57.9 363.1,57.9 363.3,66.2 363.4,51.0 363.6,63.1 363.8,43.3 364.0,43.3 364.1,66.9 364.3,71.8 364.5,54.4 364.6,61.1 364.8,62.3 365.0,59.7 365.2,59.7 365.3,59.7 365.5,62.9 365.7,67.2 365.9,67.2 366.0,67.0 366.2,60.1 366.4,60.1 366.6,59.3 366.7,63.5 366.9,63.2 367.1,57.8 367.3,57.8 367.4,57.1 367.6,55.4 367.8,55.4 368.0,48.5 368.1,48.5 368.3,53.7 368.5,50.5 368.6,52.1 368.8,54.2 369.0,56.7 369.2,59.4 369.3,70.0 369.5,63.8 369.7,63.6 369.9,63.8 370.0,61.2 370.2,45.5 370.4,45.5 370.6,46.2 370.7,44.1 370.9,45.4 371.1,62.5 371.3,62.5 371.4,55.8 371.6,56.1 371.8,57.3 372.0,54.7 372.1,54.2 372.3,68.4 372.5,56.1 372.7,50.3 372.8,53.4 373.0,53.4 373.2,54.3 373.3,56.5 373.5,55.5 373.7,64.9 373.9,59.7 374.0,59.7 374.2,55.9 374.4,55.9 374.6,61.7 374.7,60.2 374.9,60.2 375.1,64.6 375.3,62.5 375.4,56.2 375.6,56.2 375.8,59.3 376.0,58.1 376.1,60.3 376.3,62.1 376.5,76.7 376.7,73.6 376.8,64.5 377.0,54.0 377.2,46.2 377.4,52.4 377.5,58.0 377.7,58.5 377.9,55.1 378.0,55.1 378.2,62.8 378.4,57.5 378.6,51.0 378.7,56.3 378.9,60.1 379.1,44.2 379.3,44.2 379.4,55.9 379.6,60.0 379.8,62.7 380.0,58.5 380.1,53.5 380.3,56.5 380.5,56.5 380.7,56.5 380.8,56.5 381.0,55.1 381.2,58.7 381.4,58.7 381.5,52.7 381.7,52.7 381.9,53.1 382.1,49.0 382.2,48.9 382.4,45.5 382.6,45.1 382.7,56.4 382.9,58.9 383.1,55.7 383.3,58.9 383.4,55.7 383.6,50.5 383.8,50.5 384.0,56.8 384.1,60.0 384.3,51.3 384.5,53.0 384.7,53.8 384.8,53.8 385.0,50.2 385.2,51.6 385.4,53.4 385.5,53.4 385.7,55.9 385.9,63.8 386.1,48.8 386.2,48.3 386.4,54.3 386.6,66.1 386.7,65.3 386.9,52.8 387.1,52.5 387.3,49.4 387.4,49.4 387.6,44.4 387.8,44.4 388.0,64.1 388.1,54.2 388.3,50.3 388.5,55.9 388.7,54.9 388.8,51.0 389.0,50.2 389.2,63.4 389.4,57.4 389.5,66.2 389.7,56.0 389.9,54.7 390.1,62.4 390.2,51.1 390.4,51.0 390.6,60.1 390.8,56.1 390.9,53.5 391.1,53.5 391.3,51.0 391.4,55.6 391.6,56.1 391.8,56.1 392.0,56.1 392.1,49.3 392.3,56.6 392.5,56.7 392.7,56.7 392.8,56.7 393.0,61.8 393.2,73.2 393.4,64.8 393.5,52.3 393.7,62.5 393.9,43.5 394.1,60.8 394.2,58.8 394.4,52.3 394.6,44.2 394.8,47.2 394.9,47.2 395.1,61.0 395.3,45.3 395.5,64.9 395.6,54.6 395.8,56.5 396.0,52.4 396.1,52.4 396.3,52.4 396.5,66.2 396.7,62.8 396.8,62.8 397.0,53.3 397.2,49.6 397.4,57.6 397.5,53.6 397.7,53.6 397.9,54.3 398.1,57.0 398.2,57.0 398.4,53.9 398.6,53.9 398.8,53.3 398.9,56.0 399.1,61.1 399.3,59.6 399.5,46.3 399.6,63.7 399.8,58.7 400.0,54.1 400.1,54.1 400.3,52.3 400.5,53.6 400.7,53.6 400.8,53.6 401.0,53.6 401.2,41.6 401.4,51.1 401.5,45.5 401.7,62.1 401.9,62.1 402.1,62.1 402.2,51.6 402.4,51.6 402.6,52.3 402.8,51.7 402.9,53.5 403.1,53.5 403.3,62.5 403.5,53.8 403.6,55.7 403.8,51.8 404.0,63.1 404.2,63.6 404.3,63.6 404.5,48.4 404.7,60.9 404.8,60.9 405.0,53.8 405.2,53.8 405.4,55.6 405.5,51.8 405.7,51.8 405.9,53.7 406.1,44.3 406.2,52.8 406.4,55.8 406.6,55.8 406.8,55.8 406.9,47.2 407.1,43.2 407.3,44.4 407.5,56.8 407.6,58.0 407.8,45.1 408.0,54.8 408.2,55.0 408.3,52.5 408.5,59.4 408.7,46.3 408.9,66.4 409.0,56.0 409.2,59.4 409.4,57.9 409.5,68.0 409.7,56.7 409.9,52.3 410.1,58.3 410.2,55.9 410.4,55.9 410.6,60.5 410.8,60.0 410.9,57.4 411.1,56.4 411.3,56.4 411.5,61.3 411.6,61.3 411.8,49.9 412.0,50.7 412.2,62.2 412.3,57.0 412.5,57.0 412.7,57.0 412.9,62.1 413.0,43.0 413.2,51.2 413.4,54.9 413.5,54.9 413.7,52.8 413.9,62.0 414.1,49.5 414.2,50.9 414.4,54.9 414.6,58.1 414.8,51.7 414.9,61.2 415.1,54.3 415.3,54.3 415.5,54.9 415.6,44.1 415.8,64.6 416.0,55.7 416.2,56.2 416.3,54.9 416.5,55.0 416.7,61.1 416.9,61.1 417.0,56.1 417.2,55.1 417.4,59.6 417.6,49.5 417.7,44.9 417.9,47.5 418.1,47.5 418.2,62.8 418.4,54.6 418.6,58.2 418.8,61.0 418.9,52.5 419.1,58.7 419.3,57.4 419.5,57.4 419.6,65.7 419.8,58.3 420.0,50.6 420.2,58.4 420.3,71.2 420.5,60.7 420.7,51.6 420.9,51.6 421.0,59.8 421.2,61.2 421.4,62.9 421.6,67.8 421.7,61.8 421.9,52.2 422.1,58.9 422.3,49.5 422.4,48.0 422.6,60.1 422.8,59.1 422.9,59.1 423.1,59.5 423.3,58.0 423.5,58.8 423.6,58.8 423.8,55.2 424.0,63.1 424.2,71.5 424.3,71.5 424.5,62.1 424.7,50.5 424.9,50.5 425.0,46.1 425.2,48.5 425.4,48.5 425.6,56.1 425.7,66.8 425.9,54.5 426.1,54.5 426.3,48.6 426.4,66.6 426.6,50.7 426.8,49.1 426.9,58.9 427.1,63.3 427.3,63.3 427.5,55.7 427.6,55.7 427.8,55.7 428.0,55.7 428.2,59.4 428.3,53.5 428.5,56.3 428.7,62.9 428.9,63.0 429.0,59.8 429.2,59.8 429.4,57.6 429.6,61.6 429.7,59.7 429.9,59.7 430.1,60.8 430.3,48.2 430.4,45.9 430.6,54.7 430.8,52.6 431.0,62.8 431.1,52.2 431.3,56.5 431.5,57.3 431.6,59.5 431.8,59.7 432.0,53.7 432.2,56.2 432.3,59.0 432.5,52.0 432.7,47.2 432.9,60.1 433.0,46.3 433.2,55.3 433.4,62.0 433.6,55.7 433.7,55.7 433.9,51.9 434.1,51.9 434.3,51.9 434.4,63.0 434.6,60.5 434.8,50.7 435.0,46.4 435.1,66.1 435.3,52.4 435.5,52.4 435.7,52.4 435.8,55.7 436.0,51.7 436.2,59.6 436.3,41.5 436.5,57.1 436.7,51.6 436.9,51.6 437.0,46.9 437.2,48.1 437.4,43.3 437.6,63.5 437.7,63.0 437.9,65.6 438.1,58.1 438.3,54.4 438.4,54.4 438.6,65.8 438.8,65.8 439.0,65.8 439.1,62.6 439.3,62.6 439.5,62.1 439.7,62.1 439.8,62.1 440.0,62.1 440.2,54.8 440.3,54.8 440.5,59.8 440.7,41.7 440.9,52.7 441.0,53.5 441.2,58.7 441.4,50.5 441.6,46.3 441.7,49.2 441.9,61.3 442.1,56.6 442.3,60.0 442.4,53.5 442.6,56.2 442.8,53.0 443.0,54.0 443.1,54.0 443.3,59.2 443.5,60.4 443.7,66.5 443.8,66.5 444.0,60.2 444.2,54.1 444.4,46.2 444.5,64.2 444.7,59.9 444.9,58.6 445.0,49.1 445.2,51.5 445.4,43.7 445.6,51.6 445.7,51.6 445.9,51.6 446.1,49.2 446.3,59.1 446.4,63.8 446.6,66.3 446.8,64.6 447.0,58.3 447.1,51.8 447.3,50.7 447.5,69.0 447.7,69.0 447.8,69.1 448.0,50.9 448.2,56.3 448.4,49.9 448.5,54.5 448.7,59.1 448.9,59.1 449.1,53.6 449.2,53.6 449.4,54.9 449.6,59.3 449.7,59.3 449.9,67.0 450.1,55.7 450.3,55.7 450.4,49.8 450.6,59.4 450.8,58.0 451.0,53.8 451.1,62.3 451.3,53.2 451.5,60.7 451.7,54.2 451.8,58.2 452.0,55.4 452.2,51.8 452.4,60.3 452.5,58.2 452.7,56.8 452.9,50.2 453.1,50.2 453.2,47.5 453.4,45.2 453.6,50.8 453.7,51.0 453.9,50.0 454.1,50.0 454.3,50.0 454.4,50.0 454.6,50.0 454.8,59.9 455.0,53.0 455.1,62.7 455.3,62.7 455.5,51.1 455.7,53.0 455.8,53.0 456.0,53.0 456.2,60.8 456.4,60.8 456.5,54.0 456.7,60.2 456.9,64.2 457.1,53.1 457.2,46.6 457.4,46.6 457.6,49.6 457.8,49.6 457.9,61.9 458.1,42.9 458.3,46.1 458.4,52.1 458.6,52.1 458.8,56.6 459.0,58.2 459.1,58.2 459.3,53.2 459.5,53.2 459.7,69.5 459.8,61.1 460.0,61.1 460.2,64.2 460.4,64.2 460.5,57.8 460.7,57.6 460.9,50.0 461.1,58.4 461.2,58.4 461.4,58.4 461.6,50.8 461.8,64.1 461.9,61.1 462.1,52.0 462.3,53.1 462.5,53.1 462.6,51.7 462.8,41.9 463.0,40.8 463.1,40.8 463.3,43.5 463.5,56.1 463.7,62.5 463.8,62.5 464.0,61.7 464.2,61.7 464.4,66.9 464.5,65.7 464.7,65.7 464.9,50.5 465.1,50.5 465.2,53.1 465.4,60.5 465.6,66.2 465.8,64.5 465.9,64.5 466.1,64.5 466.3,54.5 466.5,54.5 466.6,53.6 466.8,53.6 467.0,58.2 467.2,57.7 467.3,57.7 467.5,58.7 467.7,51.8 467.8,59.3 468.0,60.7 468.2,60.7 468.4,57.1 468.5,59.5 468.7,55.6 468.9,55.6 469.1,55.6 469.2,55.6 469.4,54.4 469.6,64.6 469.8,63.6 469.9,60.8 470.1,59.8 470.3,44.7 470.5,62.1 470.6,45.6 470.8,56.5 471.0,56.5 471.2,56.5 471.3,56.5 471.5,56.5 471.7,52.8 471.8,58.1 472.0,58.1 472.2,56.7 472.4,59.3 472.5,49.6 472.7,57.4 472.9,59.9 473.1,56.5 473.2,56.5 473.4,60.5 473.6,59.1 473.8,52.4 473.9,52.4 474.1,52.4 474.3,56.8 474.5,60.7 474.6,53.5 474.8,52.7 475.0,52.7 475.2,62.7 475.3,61.5 475.5,56.6 475.7,61.7 475.9,53.8 476.0,63.3 476.2,49.3 476.4,49.3 476.5,48.7 476.7,50.3 476.9,59.7 477.1,59.7 477.2,52.4 477.4,58.1 477.6,58.1 477.8,58.1 477.9,45.5 478.1,68.7 478.3,62.2 478.5,57.7 478.6,57.7 478.8,52.2 479.0,65.8 479.2,45.0 479.3,45.0 479.5,67.3 479.7,58.2 479.9,54.4 480.0,51.6 480.2,47.3 480.4,50.8 480.6,54.8 480.7,49.8 480.9,49.8 481.1,49.8 481.2,63.5 481.4,59.5 481.6,61.8 481.8,64.5 481.9,53.8 482.1,56.5 482.3,55.1 482.5,58.1 482.6,51.5 482.8,56.6 483.0,56.3 483.2,56.3 483.3,56.3 483.5,69.6 483.7,55.8 483.9,56.5 484.0,47.6 484.2,47.6 484.4,55.9 484.6,55.9 484.7,51.6 484.9,57.0 485.1,56.9 485.2,56.9 485.4,56.9 485.6,56.9 485.8,55.4 485.9,53.5 486.1,53.5 486.3,46.0 486.5,52.4 486.6,50.4 486.8,45.4 487.0,45.4 487.2,62.9 487.3,69.3 487.5,71.1 487.7,53.7 487.9,64.1 488.0,46.1 488.2,46.1 488.4,61.2 488.6,61.2 488.7,43.6 488.9,53.3 489.1,53.3 489.3,51.8 489.4,47.0 489.6,65.4 489.8,45.2 489.9,53.8 490.1,42.9 490.3,47.6 490.5,62.5 490.6,42.5 490.8,42.5 491.0,44.0 491.2,44.0 491.3,44.0 491.5,63.5 491.7,53.6 491.9,62.0 492.0,63.8 492.2,59.0 492.4,73.2 492.6,72.1 492.7,65.2 492.9,57.5 493.1,59.0 493.3,49.2 493.4,50.4 493.6,55.7 493.8,65.5 494.0,62.1 494.1,47.6 494.3,51.5 494.5,59.0 494.6,59.0 494.8,59.0 495.0,59.0 495.2,55.3 495.3,58.5 495.5,58.0 495.7,50.4 495.9,42.1 496.0,42.1 496.2,50.3 496.4,48.2 496.6,50.5 496.7,50.1 496.9,58.0 497.1,49.7 497.3,55.9 497.4,55.9 497.6,55.9 497.8,46.4 498.0,69.1 498.1,66.6 498.3,60.9 498.5,61.2 498.6,61.2 498.8,61.2 499.0,61.2 499.2,56.4 499.3,54.6 499.5,51.4 499.7,51.4 499.9,55.6 500.0,58.4 500.2,55.9 500.4,53.5 500.6,53.5 500.7,58.1 500.9,53.7 501.1,56.3 501.3,57.5 501.4,61.2 501.6,49.5 501.8,49.5 502.0,59.9 502.1,56.3 502.3,55.2 502.5,51.9 502.7,44.5 502.8,44.5 503.0,61.3 503.2,54.8 503.3,55.0 503.5,55.0 503.7,55.0 503.9,55.0 504.0,53.2 504.2,60.8 504.4,49.5 504.6,49.5 504.7,49.5 504.9,54.0 505.1,54.0 505.3,59.5 505.4,55.8 505.6,55.8 505.8,68.4 506.0,68.4 506.1,68.4 506.3,57.2 506.5,55.3 506.7,66.9 506.8,66.2 507.0,51.0 507.2,51.0 507.4,67.4 507.5,53.2 507.7,47.5 507.9,58.1 508.0,67.3 508.2,67.3 508.4,51.8 508.6,57.7 508.7,53.8 508.9,53.4 509.1,53.5 509.3,58.5 509.4,56.2 509.6,54.3 509.8,57.6 510.0,55.1 510.1,54.6 510.3,45.3 510.5,46.6 510.7,61.9 510.8,60.3 511.0,65.0 511.2,59.3 511.4,59.3 511.5,56.0 511.7,52.8 511.9,51.5 512.0,51.5 512.2,52.5 512.4,53.0 512.6,60.4 512.7,70.2 512.9,64.0 513.1,61.5 513.3,56.4 513.4,56.4 513.6,57.5 513.8,57.5 514.0,57.5 514.1,55.6 514.3,55.6 514.5,47.0 514.7,55.8 514.8,55.8 515.0,63.2 515.2,63.2 515.4,60.5 515.5,58.5 515.7,58.5 515.9,67.4 516.1,67.0 516.2,65.7 516.4,52.3 516.6,52.3 516.7,52.9 516.9,48.4 517.1,44.3 517.3,55.8 517.4,60.5 517.6,57.1 517.8,48.8 518.0,49.2 518.1,49.2 518.3,58.3 518.5,59.9 518.7,65.8 518.8,64.6 519.0,64.6 519.2,53.2 519.4,55.8 519.5,55.8 519.7,58.2 519.9,58.2 520.1,54.3 520.2,57.3 520.4,57.3 520.6,50.6 520.8,55.3 520.9,57.2 521.1,57.2 521.3,54.4 521.4,69.6 521.6,70.1 521.8,58.0 522.0,58.0 522.1,51.2 522.3,54.9 522.5,52.6 522.7,49.8 522.8,49.8 523.0,49.8 523.2,54.4 523.4,55.4 523.5,55.4 523.7,60.0 523.9,60.0 524.1,62.0 524.2,62.0 524.4,65.6 524.6,49.8 524.8,49.8 524.9,57.5 525.1,62.1 525.3,50.4 525.4,45.6 525.6,42.6 525.8,59.8 526.0,59.8 526.1,47.2 526.3,55.9 526.5,58.3 526.7,46.3 526.8,46.9 527.0,47.9 527.2,60.9 527.4,61.0 527.5,67.3 527.7,52.9 527.9,51.5 528.1,51.0 528.2,51.6 528.4,53.0 528.6,53.0 528.8,53.0 528.9,55.9 529.1,56.9 529.3,57.4 529.5,46.1 529.6,46.1 529.8,57.3 530.0,57.3 530.1,50.0 530.3,65.0 530.5,65.0 530.7,59.1 530.8,55.1 531.0,61.5 531.2,67.4 531.4,66.2 531.5,66.2 531.7,68.3 531.9,53.0 532.1,58.6 532.2,57.9 532.4,53.1 532.6,56.1 532.8,56.1 532.9,56.1 533.1,56.8 533.3,52.3 533.5,60.4 533.6,56.6 533.8,55.8 534.0,52.7 534.2,59.3 534.3,66.3 534.5,63.6 534.7,59.3 534.8,53.3 535.0,46.1 535.2,46.1 535.4,49.3 535.5,39.4 535.7,68.0 535.9,52.7 536.1,58.4 536.2,58.4 536.4,58.6 536.6,57.3 536.8,57.7 536.9,50.8 537.1,56.0 537.3,56.0 537.5,56.1 537.6,45.3 537.8,45.3 538.0,45.3 538.2,45.3 538.3,57.8 538.5,46.4 538.7,51.5 538.9,54.2 539.0,50.7 539.2,53.2 539.4,48.8 539.5,44.3 539.7,44.3 539.9,52.3 540.1,60.2 540.2,56.2 540.4,56.2 540.6,58.7 540.8,50.7 540.9,41.4 541.1,51.2 541.3,49.6 541.5,49.6 541.6,49.6 541.8,49.6 542.0,51.0 542.2,44.2 542.3,59.6 542.5,59.6 542.7,66.0 542.9,58.0 543.0,52.5 543.2,52.5 543.4,50.6 543.5,50.6 543.7,48.5 543.9,62.3 544.1,66.2 544.2,56.9 544.4,54.3 544.6,54.3 544.8,64.3 544.9,56.7 545.1,56.7 545.3,63.1 545.5,63.1 545.6,59.1 545.8,59.1 546.0,59.1 546.2,61.1 546.3,58.8 546.5,56.2 546.7,55.8 546.9,59.3 547.0,65.2 547.2,62.9 547.4,58.3 547.6,59.6 547.7,59.8 547.9,50.6 548.1,61.7 548.2,54.5 548.4,51.4 548.6,49.6 548.8,49.6 548.9,50.9 549.1,44.9 549.3,63.9 549.5,61.8 549.6,53.0 549.8,53.0 550.0,50.1 550.2,50.1 550.3,50.1 550.5,53.1 550.7,50.0 550.9,48.6 551.0,50.8 551.2,57.0 551.4,56.4 551.6,56.4 551.7,58.5 551.9,60.4 552.1,64.9 552.3,51.7 552.4,50.6 552.6,50.6 552.8,50.6 552.9,50.6 553.1,57.0 553.3,53.9 553.5,57.4 553.6,59.6 553.8,68.0 554.0,54.9 554.2,63.3 554.3,49.2 554.5,51.8 554.7,51.8 554.9,51.8 555.0,61.1 555.2,61.1 555.4,53.2 555.6,53.2 555.7,55.4 555.9,39.6 556.1,39.6 556.3,59.3 556.4,64.6 556.6,64.6 556.8,58.4 556.9,54.1 557.1,53.0 557.3,59.8 557.5,59.8 557.6,60.3 557.8,60.3 558.0,60.3 558.2,52.6 558.3,54.5 558.5,66.6 558.7,66.6 558.9,49.1 559.0,46.5 559.2,56.0 559.4,64.2 559.6,61.7 559.7,56.8 559.9,60.3 560.1,70.0 560.3,54.7 560.4,41.0 560.6,60.3 560.8,60.3 561.0,56.2 561.1,68.0 561.3,54.4 561.5,52.1 561.6,51.1 561.8,53.9 562.0,53.9 562.2,53.9 562.3,51.1 562.5,51.1 562.7,41.7 562.9,54.2 563.0,54.2 563.2,58.6 563.4,58.6 563.6,49.1 563.7,67.1 563.9,65.4 564.1,56.4 564.3,69.4 564.4,67.4 564.6,64.1 564.8,65.5 565.0,65.3 565.1,58.3 565.3,49.6 565.5,52.4 565.7,53.8 565.8,54.2 566.0,51.9 566.2,68.1 566.3,67.1 566.5,61.0 566.7,50.2 566.9,53.0 567.0,50.5 567.2,45.8 567.4,61.2 567.6,59.9 567.7,59.9 567.9,59.9" class="chain"/>

  <line x1="46" y1="56.2" x2="568"
        y2="56.2" class="axis accent" stroke-width="1"
        stroke-dasharray="4 4" opacity=".85"/>

  <polyline points="584.0,263.2 584.0,257.5 584.0,251.9 584.0,246.3 584.0,240.6 584.0,235.0 584.0,229.4 584.0,223.7 584.0,218.1 584.0,212.5 584.0,206.8 584.0,201.2 584.0,195.5 584.0,189.9 584.0,184.3 584.0,178.6 584.0,173.0 584.0,167.4 584.0,161.7 584.0,156.1 584.0,150.5 584.0,144.8 584.0,139.2 584.0,133.5 584.0,127.9 584.0,122.3 584.0,116.6 584.0,111.0 584.0,105.4 584.0,99.7 584.0,94.1 584.0,88.5 584.0,82.8 584.1,77.2 590.9,71.5 613.3,65.9 654.8,60.3 670.0,54.6 629.7,49.0 599.2,43.4 585.1,37.7 584.0,32.1 584.0,26.5 584.0,20.8" class="accent" fill="none"
            stroke-width="1.1" opacity=".9"/>
  <text x="694" y="31" text-anchor="end"
        class="label accent-fill" opacity=".95">posterior</text>
</svg>
